<mxfile modified="2021-10-02T14:07:33.446Z" host="app.diagrams.net" agent="5.0 (Windows NT 10.0; Win64; x64) AppleWebKit/537.36 (KHTML, like Gecko) Chrome/94.0.4606.61 Safari/537.36" etag="LWwVXqVefpalT4DbkKPn" version="15.4.1" type="github">
  <diagram id="Ht1M8jgEwFfnCIfOTk4-" name="Page-1">
    <mxGraphModel dx="2031" dy="2743" grid="1" gridSize="10" guides="1" tooltips="1" connect="1" arrows="1" fold="1" page="1" pageScale="1" pageWidth="1169" pageHeight="827" math="0" shadow="0">
      <root>
        <mxCell id="0" />
        <mxCell id="1" parent="0" />
        <mxCell id="UEzPUAAOIrF-is8g5C7q-175" value="AWS Cloud" style="points=[[0,0],[0.25,0],[0.5,0],[0.75,0],[1,0],[1,0.25],[1,0.5],[1,0.75],[1,1],[0.75,1],[0.5,1],[0.25,1],[0,1],[0,0.75],[0,0.5],[0,0.25]];outlineConnect=0;gradientColor=none;html=1;whiteSpace=wrap;fontSize=12;fontStyle=0;shape=mxgraph.aws4.group;grIcon=mxgraph.aws4.group_aws_cloud_alt;strokeColor=#232F3E;fillColor=none;verticalAlign=top;align=left;spacingLeft=30;fontColor=#232F3E;dashed=0;labelBackgroundColor=#ffffff;" parent="1" vertex="1">
          <mxGeometry x="413" y="-1059" width="1410" height="680" as="geometry" />
        </mxCell>
        <mxCell id="MpN5UlWRLzrrvYsXbTaB-15" style="edgeStyle=orthogonalEdgeStyle;rounded=0;orthogonalLoop=1;jettySize=auto;html=1;exitX=1;exitY=0.5;exitDx=0;exitDy=0;entryX=1;entryY=0.5;entryDx=0;entryDy=0;" parent="1" source="MpN5UlWRLzrrvYsXbTaB-7" target="MpN5UlWRLzrrvYsXbTaB-7" edge="1">
          <mxGeometry relative="1" as="geometry" />
        </mxCell>
        <mxCell id="MpN5UlWRLzrrvYsXbTaB-7" value="EC2 instance contents" style="points=[[0,0],[0.25,0],[0.5,0],[0.75,0],[1,0],[1,0.25],[1,0.5],[1,0.75],[1,1],[0.75,1],[0.5,1],[0.25,1],[0,1],[0,0.75],[0,0.5],[0,0.25]];outlineConnect=0;gradientColor=none;html=1;whiteSpace=wrap;fontSize=12;fontStyle=0;shape=mxgraph.aws4.group;grIcon=mxgraph.aws4.group_ec2_instance_contents;strokeColor=#D86613;fillColor=none;verticalAlign=top;align=left;spacingLeft=30;fontColor=#D86613;dashed=0;" parent="1" vertex="1">
          <mxGeometry x="613" y="-857.25" width="739" height="318.25" as="geometry" />
        </mxCell>
        <mxCell id="MpN5UlWRLzrrvYsXbTaB-13" value="Amazon RDS" style="outlineConnect=0;fontColor=#232F3E;gradientColor=none;strokeColor=#ffffff;fillColor=#232F3E;dashed=0;verticalLabelPosition=middle;verticalAlign=bottom;align=center;html=1;whiteSpace=wrap;fontSize=10;fontStyle=1;spacing=3;shape=mxgraph.aws4.productIcon;prIcon=mxgraph.aws4.rds;" parent="1" vertex="1">
          <mxGeometry x="1483" y="-764" width="80" height="100" as="geometry" />
        </mxCell>
        <mxCell id="MpN5UlWRLzrrvYsXbTaB-18" value="" style="rounded=0;whiteSpace=wrap;html=1;" parent="1" vertex="1">
          <mxGeometry x="963" y="-809" width="370" height="190" as="geometry" />
        </mxCell>
        <mxCell id="MpN5UlWRLzrrvYsXbTaB-42" style="edgeStyle=orthogonalEdgeStyle;rounded=0;orthogonalLoop=1;jettySize=auto;html=1;fontSize=12;" parent="1" source="MpN5UlWRLzrrvYsXbTaB-16" target="UEzPUAAOIrF-is8g5C7q-177" edge="1">
          <mxGeometry relative="1" as="geometry">
            <Array as="points">
              <mxPoint x="1252" y="-449" />
              <mxPoint x="1751" y="-449" />
            </Array>
          </mxGeometry>
        </mxCell>
        <mxCell id="MpN5UlWRLzrrvYsXbTaB-16" value="" style="shape=image;verticalLabelPosition=bottom;labelBackgroundColor=#ffffff;verticalAlign=top;aspect=fixed;imageAspect=0;image=data:image/png,iVBORw0KGgoAAAANSUhEUgAABLAAAAIiCAIAAABXPabqAAAABGdBTUEAANbY1E9YMgAAABl0RVh0U29mdHdhcmUAQWRvYmUgSW1hZ2VSZWFkeXHJZTwAADuwSURBVHja7N1NTJbXoi9wdm/vYJ8E7OzmIJF9RigDnGBkcF4STWprusGBpMb4dqAmtWaTyEQmhBFhghNNaGybVAfFNG3sQDnNbm2iCZwBRiYyQBmd0CB3KpDs5J7RXfBUjlXLRng/nrWe3y/E0J1z9H2fj7XWf33+6c8df2kAAACgeN5xCQAAAARCAAAABEIAAAAEQgAAAARCAAAABEIAAAAEQgAAAARCAAAABEIAAAAEQgAAAARCAAAABEIAAAAEQgAAAARCAAAABEIAAAAEQgAAAARCAAAABEIAAAAEQgAAAARCAAAABEIAAAAEQgAAAARCAAAABEIAAACBEAAAAIEQAAAAgRAAAACBEAAAAIEQAAAAgRAAAACBEAAAAIEQAAAAgRAAAACBEAAAAIEQAAAAgRAAAACBEAAAAIEQAAAAgRAAAACBEAAAAIEQAAAAgRAAAACBEAAAAIEQAAAAgRAAAACBEAAAAIEQAABAIAQAAEAgBAAAQCAEAABAIAQAAEAgBAAAQCAEAABAIAQAAEAgBAAAQCAEAABAIAQAAEAgBAAAQCAEAABAIAQAAEAgBAAAQCAEAABAIAQAAEAgBAAAQCAEAABAIAQAAEAgBAAAQCAEAABAIAQAAEAgBAAAQCAEAAAQCAEAABAIAQAAEAgBAAAQCAEAABAIAQAAEAgBAAAQCAEAABAIAQAAEAgBAAAQCAEAABAIAQAAEAgBAAAQCAEAABAIAQAAEAgBAAAQCAEAABAIAQAAEAgBAAAQCAEAABAIAQAAEAgBAAB4g3ddAnbs56+/jejTfnD+dLX/iT2NTQfb2mO5IM/XVucW5j3GAAACIexEqbPLRXhZSIM/xROSp2dnahCSAQDIM1NGAQAABEIAAAAEQgAAAARCAAAABEIAAAAEQgAAAARCAAAABEIAAAAEQgAAAARCAAAABEIAAAAEQgAAAARCAAAABEIAAAAEQgAAAARCAAAABEIAAAAEQgAAAARCAAAABEIAAAAEQgAAAARCAAAABEIAAAAEQgAAAIEQAAAAgRAAAACBEAAAAIEQAAAAgRAAAACBEAAAAIEQAAAAgRAAAACBEAAAAIEQAAAAgRAAAACBEAAAAIEQAAAAgRAAAACBEAAAAIEQAAAAgRAAAACBEAAAAIEQAAAAgRAAAACBEAAAAIEQAAAAgRAAAEAgdAkAAAAEQgAAAARCAAAABEIAAAAEQgAAAARCAAAABEIAAAAEQgAAAARCAAAABEIAAAAEQgAAAPLiXZcAKuXxwvyH50/H8mmfr626ZQAABfenP3f8xVVgZ/7x+L8i+rT/cvDf3DIAAHiZKaMAAAACIQAAAAIhAAAAAiEAAAACIQAAAAIhAAAAAiEAAAACIQAAAAIhAAAAAiEAAAACIQAAAAIhAAAAAiEAAAACIQAAAAIhAAAAAiEAAAACIQAAAAIhAAAAAiEAAAACIQAAAAIhAAAAAiEAAACvetclAACA5HW0tb/X2LT9//vF5aXw47oJhET5nu9pbOrY3/5W/79zT+dX1la9/PBHdWf4fU9T09v+DSurq3ML89nvjxd+e8tIQHdn18v/WTrUtZu/bfHZ0q8vCl7PCXlOCB7RnGttbgk/WYXV2rw3/L5eQHV27fKvDXc8q8s27v5aVmR5EpLxpz93/MVViLEhsi+88Htbsld9Pf61tVf2n8je/I1w+Gz60cwbU+I/Hv9XRBftXw7+myeHP2oMVbzu3Nr07Ez4c2r24frvf/B+Ud/m1GbG29PYePBFAbv+nDQ21eyTzG00trJyOOtZ8Kiwza6Kl/uFuzsPv1ziVekZnnspGzxfb0I8eaWz4/na//SOUdnyKhRWHW0HshxY+88QarRQLs09fRLu79RG7YZASFXe9vCGh5I9lOn7XrRUai+LiKEJO/d0/YUP/ykQEmnFmTXx6/g2bV2nhvdLs6naQpv44EbLOBStm5Gv2h0BlX1Ust46PfTF9HJPVkgC4fe8FWj/tDnR8GKsaXMahSyx/cwfbn3p0OHwZw5verib683FRw+zksr9EgjZ1dsemq0hAda4Q/qtXvi6dEQJhLxVm2mjM+XAwY1f8vkqbdHon5p9OHn/nnBYkY6ArOkcCtVqTKmor/V+hIX56UcPdSUk3Hmx+QBHFPx2XPRtZsXpRzOC4mZ1ttEyPNxz5FhcpdN6Xfbo4eSDe7quBEK2+7b3HD0WivtYeqnjUoNAGCrp8om+aIrpZ0sTd2+n13LKqszQfkrmPQqVaKhKVajbL0jX49/+9mwCcNGK0/CEhNbz9MbTom8+3i6MPEwLytuDvbmMJdvyoCApMcS/LAQm8BiEOzhx5wdFk0DIH77tPUffD3/GNXwhEL4uRJGfvv42lgsyPTvzwfnTaTSeQqO/+9B6T0ryLaeQ4Sfv/xIqVG/0ZhfAevg/1FXM+Le10OoKj0pogRk2jOUxzvO0oHw+4b8uL03NPsyWKaYUEUNzonziZKotQ8lQIEQOFAgFwoq9QaVDh7OlFAVsBk3c/WHizu0C1qYGT3acDD+fuKn5lasQmE1nKGYhVoOImK1ki658K5/oK/eeLEjJFsqlyfu/pDdZSSDknwvlfvnEyU96++RAgVAg3EFluTl/xiPdsDFgOHr9WtqtfIMnFRTax+MTN809rqNQTfz16PtCYC2f+fWfjQ0w87wDU6jUsiHBAt6jcFPGb90sZhenQFg4oRET3vP+8ll1gEAoEL6tbDF9qCy9PgWJhVlzuWP/gSJMA9b8KkgDoGcjB+rRqK9sB6a5hSf52aG33Ns3dPGSgq6hGF2cAmFxZRMA+s+cVQ0IhALhDt6d4kye2aXxWzdCVRrpyE82fS6bCGodoOZXMrV/NuyjJ0sl+MZCr798TuPwjfcllEu2lhUIk6oMhi5eKvf2uRQCobpQK6oGQhr8dPhyLFvObO4GlJ0O4vaJhWkI7ftPevuUYPn34fnTdUkdouA2myihOlMuCYSiIAJh4QJheGWynZY8rrsRAmGoR/M5VFioLWHj6koYv3VzfOKGtYVKsIKYW5jv+vijujwkVwaHRcFt0l0lEIqCCIRFCYR2WqpG+z7c3JzssCcExiK0ui4MXzZTawdP+N/KZ5Vgcfl0+HKNN7cMLYSxwWHjxjuozsZv3Ry9ftWlEAjjkM0BGPrskkshEAqE21Tu7fvkxElrxpJp8byi/8y50FAWAuOS5xHmvFGCRWpxeenA8VItuwxCFDR0vMtbpruqqt51CSpVK5gDANuvHe20VANfjVzpPnQ4NO7r9QF6jr4vDUYnNFtnvm/X9tpCtkpQZ0e8Rq9fq9m/1X/m3NDFSyq73Tcbfvr626j3ThMIE9fR1h6ioA5C2I7s9Ahzqmsmu9R1zITE2/Ya/eKaaVqvR0HbgcRucXmpNlMnwnv01cgV7cPKpuueI8d0VwmEuTN0ccAcUdhmMjG3SiYkpgrus0sdbQdMH91s3NsgIA2fT9ysTcFr4liV3sRsqHBwbMTVEAjrr6Ot/auRKxYHwz/V3dn15cgVc6vqmwmfr62qPnlbPUeO/fx1ywfnTxc5E4Y2fYiC/WfOeR4SEJ7kb6o8PBgemNA+tGKwqsL7GJoWpwYu2IC0Ut5xCXb2IM58/6M0CNtROmRvyVyUWgY32IFQ0z39+3Qx67uNKDgQvr40mIzxWzer2rsR3pSfv/5WGqxN0RSa4i61QFi36iG86mODwy4FEBeTGthNxVe0h6fc2xei4NBntgNJx/oBBhM3qvrMFPBNqW/R9N3VL/XXCIS1lnWUWgQFRCrUnVq3yIRb6+7smvn+x69GrnhZElPV4cGhiwOemboYGxwOV951EAhrpNzbF2oIrzoQr2xjDNcBmfCPvmNoWf5kkCdRE3eqtXowPDa2GKxvEz2UTproAmHVhVdd9wOQgGwtvuvAjvNSqq2uniPHnv592lLbZNPg3dvV2IAkvA4z3//osam7UmeXTCgQVrf+C0+YVx1IhlXQ7Fi2Z0Z6Ff13V780oTpt1TiMvpjLa3NeOnmLBcJqpUGLBoHEak2dXOzm+Ulpykw2MGivwrRVY3hQGpQJBcICPVVedSA9VhKyG+XevgT6FLIZsAYGi6Diw4PSoEwoEEqDAHFrbW4xSMhuXBkcjrqKzGp5b0ERTD64V9nhQWlQJhQIPUkAKegvn3UR2E2bON6Jo86LK5TPJ25Kg1ryCISeIYA3lHXaNOzyERq6OBDdx85OLVPLF8T07MzU7Iw0WMwC6ood1ATCnWltbpEGgYIonzjpIrAb/WfOhnozlk+bteb7z5xz44qjsqsHY58pXbg6rrfPrtoC4U6qCovLgeKwsyK7rzdjaW9lHb62DS+Uyg4PhkfdotPo9J85564JhG9Xq5kGABRKaCIr9NilniPHunOfssJzPvP9j572ovnmzg+V+qtCqDC2HCnjugKhxwVgK90GTNi1nJ9iYmuAYlpcXpq4e7tSj5DVaPEyAVAg3C7TAIBi6jn6vovALpU6u3LbsxAq95nvf9QWLKBKrR4UJxLQ2twS767IAmHtagvTAIBiMjOCisjnIGGo37UCi6mCw4PhEYpo5yT+SM+RY1r7AuFWjSHTAIDC2tPYJBOye6XOrrw1mqXBIqvU8GCIEDbfSsbQxUuyvUD45paQw4iAghMIqYi/lc/m58OERrw0WFgra6uTD+7t/u8J4SHn62PZQbPfdRAIX2UjGYDWvXpMqYBPcrMUP9Tsmn1FNn7rZsiEu/97jBmkp9TZZeKoQPg7PUeO2UgGoLvzsIvA7oWmcx4m19lTtOBCFByfuLH7vyfEBqdWJsnEUYHwd/WW7kOAYJ+qkQqp+6a12ZHC0mCRVWR40GTRtCPAmN1DBMKMaQAAm00fF4HKBMK6jhBKg1RqeFArMfmSyhm8AuH6c2DPKIBNVlNTqUhWx2aWfQGYfHBv98ODoYlosmjyDBIWPRCaLArwivf0hVMhpUP1aUn3nzlnXwAqctqEqFAEHW3tSoxCB8Khi5dMAwB4mWWEVEpd9ijq7uzSiGfi7u3F5aVdtxIHzKKXCATC9PsD7DYL8AonT1AptZ9rF5p031390pVn98OD4VnqP3PWlSxKxdfc0l8WCn7zbqG+7RU9iMDvTc/OhD8fL8yvrK2trK7OLcxn//vUxv/+T2UrpkqHulqb93a0tVvCBOGl2ObrUxH2/6ChQsODIR54lgol5P/xiRsVObVSIIyGVcJQcKG58Ovy0tTsw8Vn679shMDdVgNZw3ez+dva3BKKmr+Vz8Y16aij7YDHg0opHapdIOw/c84ucawHwjs/7PJvKM7wYFYVZt2gb7oOjQfb2vc1txRh6my46Z/09o3fuuENKlAgLPICg+nZmedrq3MLT9Z/fzTzT1+Pjv3tWRvxvcYmKZp4zS3Mr/88fRL+rE0LNVS0oWoJP6GRGsqcWCpUm8rs4NFaWVt9fWB5y9TdvqepqQjlas36FxwWt2ll7beHMBRBi8vPtv4/7u48nNgTGBo5uy/h015RFh6PyQe/hBbg9ntCw9UIyfCvR9/v7uxKePLL38pnBcICBcJyb1+hVglvFI4P556ut4Z3MIli8sG9V9ox6z/7D6RdKJDSwx+qvVpOWnvjSxQ+wJXBYfuYJSCUohudC0/Cc7XR4N7JzLRXHshQloYStXTocHoDXDWrbQs7WXTzgQy1fPb72/3/XxxILBBWZPXgJymW1eHx+HziZqiPdlBqhdw49SJph5c6BKdwidJ748JXC9X0xN3bAmEhFKETMby64Z2fvP9LeHsrOx86G2ZpuPtbobl+oOdGI8ZUe3IVAifv33vrhlGVX8lPhy83bHRIuUfRyUaVpx893Fm32jbL1fFbN7KWaHTTjLdQm37D/jPnCjWBZfOBrHgVn1sbywKfZTMYGzZWeod3JDxdr7wpFRkeTG/1YLgsISdXqmM0lIGDYyPhJ1RnoUWd2BBL+EYCYSECYfLDgyEHTtz54ZVhveq1ccNrs/HmXP7H4//SaqReQv0UnvnQPKrNk79jl8dGQrM150WQmeGvPFS1bHOHfyibZpxSSyu02qvaOxPa7gWZLJr184bGfTV6JfIeCO/88MY8k01l3NzKa3zi5u4fp5RWD4ZXLyS3Ks2RyVqAQxcHwhVLJkKHUrfGW2EJhHWL/kl+r2xIcPT6tQLWExRWqOqyVkKuBgO3fk/DS/rVyBX3LudODVyob+dCaGaFDxAqrASOR6r2qtQrg8NpT1FZHz3emOln/8M3FqpTs5VcFJDSjKfRL66NXr9a9X/l+tWJO7dDvZZMZ2L5xMmCB8L0zyFMdXgwNB32Hy99OnxZGqQgOXBwbOTA8VLXxx+N37oRSxrcfFu9p1G0MvPwGcJzHgr22GNA6VAVm4ndnV2pTsPO5uBkBV34RRqsjTSGDUK1GB6bGqTBTKjUPjh/OuTPZMJCwZdBpT9C+MmJk4l9o+nZGTmQgtjNgvhcCV8hgWEfataDENp2P3/9rXXaCTffX4+C47duOhKt9rpzP6V/m1VMXTqSQv5cfLaUxoh9wc+feCf59zyltTHhVT81cOGD86elQdKWrarq+vijA8dL4ZcEHvj/uP+L28r2hUCY7UgUbeV7uEp/c5JHCo9+cW3/8VJoW0uDtVeOf9hg4u7t0Dis18MT/vXQLk3g0S0nN4AkEKZ5d6dnZ0KFkfP9M2D3z3loB//rvx8cHBuJa17o1h7n/rsYjMqb9SXiqUzHqqDEjhQOd/mAKFjXci/26cchj9W98yhU1glkwuyINYHQe55r47dupNEBA2+UDQmGhlF4zpPc/Tn/L+9BR4zmT8gJkXaL7KvOHLyUNgVYXF768PzpUwMXTPmpo0+kwcplwvAwx/48FHmQ8B3vef6Ft31wbETBTZJCYyg84fuPl8JDnnbDSLOPHYi08K9SbEtm9WA2Jb5euxrOPZ33ZiUQALIJNfn5PFM5+zw70HPkmECYoL+VUzhVJrxdjsskSaEy+/D86QPHSwXZTO9XgZAdtbFUAb+13ZMYHgxlXSj3Qs6vY6EXS3lb7Xns2TH3kT5Ii8tLH+dvRO7FOdWxivqREAjfLNzRBGoOaZAkZfuqf3D+dMGP/YFtvS93foi0aVXZvzCB4cG5hfn9x0vKve025PZXt2ke9XDQhbweTnM58sk+hZ01mmwgTOCOSoOkGgWdmwLbF/JDjCsJKxsIEzgbIJnNGDUU6270i2u57VYIT/iFuHdI7irm65BsIIx9HvDg2Ig0iCgINEQ7SFhBsa8ByTb/kAbzI97JgaEOrdnp8zsTwmq8B/qlMcFQIEzkdoaao8iHY5KY6UczoiDsRsEPHAoVetSdvPnZCpJN8T5RUYy/jV6/Fm/3R6mQg4RpBsKo54vOLcxftqcoCZmanREFYTfCGxTdS1TBHUGiHh6UBnPa6D90OMaPPT07E8Ua1I2jpG5G+mx0x/lsCIRvEHVXolklALzeEIzrA1dwR5B4D5GaW5iXBjUUKyiiAYPxiRuRtmaLefhEgoGwtbkl3vmio19ci/QYYgCqZ+rRw8I23Kt9/ECVhNbwB+dPe3S1+Ctl4u7tiJqI8Q4ShgKngIdPvOM9z4/8LxQGoC4Ke45lvGtATg1cMN8nnyKdLxrd5lLxDhIKhN7zerpgYgkAb1LMw+v2NDZF2smb54MBYtHdebhqf3N8u4bMLcxH90SFNPhNnBvmF3AZoRHCvIhloTAA9WpdFe0rR1qhh7a7+T65FemEwPGJKKdffh7nxzZCGL14D5QcvX5NMQ3AFjGjcIHw6PsxfuxBW4Xn2MEI2/ora6uRnj2zuLwUY8EVAmGkS5cFwt+UDkUZCA0PAsDLIp0vOnH3ds4r9IK3N2JsKIY0GO8EgeiWPsbbcSAQvpzpD8T4sSOdCQBso1Bq7+7sCj9F626kCu34Ym00GumUH/N9cv9cxbc8bPL+L/Fe8EjHNos2a/Rd9UfdLS4vRfq2AA0vjrpZX5eycfBaR9uB9xqbirlvNVRQjPNFJ+7eXizqfrAa+lUS73zRzVbu3MJ8dJe9Y/+BQr0XSQXCrE0W3cf+3PAgxCAULwfb2veF+Lc3JMC9ocDZF/Opp5BzpQh7eA0PaihWXAJTfCcf/BJdICxa5Z5UIIy0P97wIORQNsmzY397NuJXinbDKoi04R5dgyzU5oYHtfIr/1zFPF/0xVe4N/TZpbg+c9Eq/bQC4f74AuHcwrz6A/LQSuhoa8/iX/jFuB/UV5TbycS5eUZ+G3VV6OWPcUeZ6fhHCENbd2VtNbqx2fCBi3PYT1KBMMaFwuoPqFdTYyMBHjjY1m70D/KmFNvB0LYDqEZzvOJ/Z2vz3uieqzSGDUImjK6qDc2D4mzJm1Qg3BfjTAD1B9RKd2dX6VBXd+fhAh4xBHGJbg2I2jwK0c3+mE4lkEzNPowuEO4r0lyhd73ndZRMxw/kU0h9GyHwcPjTnp8QUW0eXYVuvk8Uosskc0+fpHHlpx/NNMS2jLB1r0AYoRgPnNChCNUQsl/P0WPdnYfNBYVIX+G4PnC2sb4bl3MxTgxJ5rl6HOEXiW6CsUAY7XueSscP5KEE6O7s6jn6fs+RY6aDQtyBMLYt4qYLs9AoagcjnCfyOJVAuLK2Gt2+Mq2mjKo/VCEQSw4MCTDLga4GpCG6LeISOBigIPVFXB94cXkppV0uY9xXRiCM8T1vjOsDh5fcAkLYsZAAyydOyoGQnuimjE7p3o3iuYpt5ODXtFqJj2MLhIWKr+kEwuhmAlhvADtrKYYc+Elvn3mhkKTwasf1dic2jJP0oxXZyMHjtBqKK2trHkKBkFdNzT50EWD7yr19/eWzNguFtOnexaOVZIKaexrfm1Kcs+nTCYTRDeyurOpQhG0Vx/3lc/1nzhoShCLoiC8Q2h8OCWo7+Ta+dm9xzqY3QljHKkSfImyltbll6OIlu4ZCoexpiux9Xz9gjRhEd854YmNTj7V7BcKq1x8RthftKANbR8Fyb59LAUUT3RajMdbmcwvzBZx+H90pAs/TCoSW2gqEVRfj2TICIbzOBFFAba5pToOpZNTQOy4BkBPl3r6nf58e+uySNAiFFdeOAPp2q8ouYiJufe0rzNn01hB6JSAXtf6VwWFH1gJx+VUgrKb3Ktc5KFvmQXRD0617BUK8ElATQxcHhj675DoAWu3kP1vWhsFnBEJVCBSl8ffVyBXvLxBpq93GiVSJwWdqKZE1hNHtUg30nzk38/2P0iAQr8SODgeKyZRRoNb2NDZdGRx2qgTwCj1EAAIhkLjW5pbvrn6p2Qe8znwfAIEQSFnIgT9//a1TJQAAcsI5hIA0CAAgEAJIgwAAAiGANAjUWHfnYRcBQCAEpEEAgHpaWV0VCAF2K+RAaRAA3sq+5hYXoe7mFuYFQqrbSnYRKAJpEADeVqtAiED41gn+aWQJ3iFsFMFXI1c86kDC9jQ2ugiw7fdFB7FAWE0ra6vuJeRKz5Fj5d4+1wFI2EF9XrBt+ogFQrwVFEhrc8tXI1dcB4Aceq4bXUORbXhsDSHV9p5xc9I1NjhsZgiQvEh3/phbeFK0O7W4vKShWF8xtgqKMwNRIKwbHT+kqufIsfDjOgDJs/OHQChBbZP51QJh1U3NzkT3mfft3ev5I0ljg8MuArCj2vyhTAiZjv1JJajo8m1xzpxoMEJYR3pKSNLQxQHNoz+ysrZaqAoGikCJR9USVFJ72EaXbwu1Y+W73re6vRgCIQnWXk39Z866DtMbcxaysY65p/OhUllcXsomLHV3dv309bcuESSjdKgrxmlKsbSUKnhtQ8lc6uyK6OsnNnIQXb6NcZqxQBjfex6azq3NLYV62khef/lcofaSyUb8NsLesyz4aRdC0bQ2WwBStZZSU6E3J9uX1uBzdPk21OwCIbUQEuzi3duuA8ko955M+wtOz86E+Df39EnIgY8X5p2ACpW1shrfO2W+Tzzt+6VSVB+4tbllT2NTMhVNdG9KjMWRQLh+VEhcI4RB96HDEwIh6aTBvvTW0oQGRAiBIQFOhT8t/4Mqi/EtC83clFrtSQfC+AZ8DlZ00mzdw63iSCCsfo5fW4vuM0eXYGELn5xIZHgwC4FTjx5m44HuLLC17s6uyQf3XIe8NxTjHH9OIxDGOJBuDWGU5p7Gl+Nbm1vCG2LYgQSEhzn2Do5Q9Icm3cSdH7ySUC/P4xxnKx06LBBG0FCMcfx5/4E0Ln6MR2gUKhCmc+xEpLM1yidONkD84j2JPhQd47dudH380YHjpcGxEWkQNNmLUwAWSozt+2SmknV3Ho7rA08XbIu4dAJhpEPqahHSEGPXRmgcfDp8+V///aAcCOxGa3NLXCuopx/F0WSq7EEFMQbC6B6tZJLt84KtCk7qYPoYBwmzWaNqU2JvDMX1GGdR8MDxkl2dIHdZRfcuL1T8oIIY+/4SGCTsjvArzC08EQhjFWkff3/ZQd7ELa7qavSLa10ffyQKAhX0N1V5DGIcJOw+dDj2y/7Xo+9H95ljGUUXCN9gavZhjB+758ixQp3lTXp6IinrQ1MgRMHR61dtEA+q8soy3ycKMQ77JDD4HOMI4eOCLSRJKhAuPotyO6CQBvvL5xTTKOur3A6YD2nQWkFQlVeJ+T4RVAQR7kgfWolRZ8IY+0oWl5dWrCGM+D2PtqnXf+asQULiLevz//SGwuGD86cNDEL+/RrtVu/l3j5VuYZiNfREOOXyfz58hGm2gH3HAmEuGCQkXvnv+VtcXpIGIRZRz9RSlee/OoixLoh6hDDGTcinHz0s2qvxTmLfJ95jQwwSEmsgzP1ps6cGLkiDEIvwtsZ7HrSqPP9iHDwID1W5ty/KFkJbe4xra40QRi/SxejZ235lcFhJTXRyftrs+K0b1g1CXOKdNaoq11Cskk8iHGdriHZh7VTBTqVPMBBGvUtsubevO/7TZiiaPHeHr6ytjl6/5h6BJnstq3LbjeZZjPvKNGwc7xTdcxXpwOZ08dJggoEw9l1ivxy5YrYJcclzFTX54J7JohBfgyzyE8AMElbKvuaWiv+d8Q7+RDfaFumS2sn7vwiE0QuNv6iTfWtzi4qEiOS8/6KYxTrELva+3VJn19DFAfexIo2iajQUI11HUO7tq8YFqV7zoP+M+aICYT1vZNxbA4UXvv+MbcqIw8F8z2CZfHDPPYLoxNtk3zT02SUTR7X4K24snjGD/vK5GKe8JVD4CIQvmoD3o28Chhc+6i2GIQ+KuQwA0pBAm+y7q19aA5LT2iHaQwVC4zCKzSZam1siHR4sbD9ygoEw1CIJrBr6auSKzkXyb1+Op6/Eu3M9MBX/OWChTfzz19/KhBr9lRXFIGH4kJE++YVdafKOVz2fwosUKhKZkLy3ePbmORA+c4NAPV5HoRL/auSKu+kBq+xDlfMVqj1HjsU7zc0IYVrveRL5PsuEDqIAoGiSWckTWsZf2T9cQ7Gi8rxCNTzq8XaCFHnfgWRHCNPYaz68Vz99/W2Mp7gAwG4ks9dfqMTNHd2xKu2rGXvTP7e9DN/HvHS2yDuTv5PqF0sp5YfXXv8iAIUyceeHZL5LR1v7zPc/WgaSn0AY+xB0PmcjD10cKEU7ry08EhN3bwuEqRmfuJnS1yn39oW6xPRRAAoitNdT2hoq22PGsVIaipWSzUbOVUt16LNL8V7Pgp9TlWwgTKwiyeqSn77+Nt6Nm6DGOtoOuAgQtcSaaKH6DpV4iIURHS/u6cqzkMFykgnz80l2LKUpCQLh73ye1iBhpv/Muad/n9bFCP+UJhfELskmWqmz68nfp4cuDujera+VtVWZUBrMLC4vTRX77OKUA+E3iU4FzroYn2zEQtUJ/JGOtnYvCEQtvck+m4Y+u/S0TrEwlI1/Pfq+pyuZHof65rEE0mBDomNIAuFv0l4e2trcEmJhqE4cYZ+rBOIi5Eq8RyEBvzXZ7yY7jytEwRAL/+9/Pg71eLULq/BvhX8i602e+f5H84wyyWxKn+00UeN5MdkJE2mctPlNgbeTST8QNiS3tcwb38asFAhFfCjoBZI6344m41H58smJky4CxB0I76TfUAv1+HdXv9xMhpUaMwzxIAuBoZEQ/vLwT4QcaC79qw3FW4k0FLOdbGsW9bs7u35O5Vy0ibu30+gX2I130/56cwvz07MzpQJszhmK+FAKhJ/wTE/Nzkw/ehi+e5XmQ4dC573GptIhW57SsLKa6zI0vPuh0ir4wgCI2uLyUkHq8ayHN2thhxp8Y7rss+lHM8+3d0BCaAaEn33hz70t3Z2H9238p+dnOz0OUe+N+cojFPJ/z9H3L4+NVO9QjfWR7YuXUhpkHr1+zYvwbvLfMNzmn74uUHTJpoVsTj4JVemv6ytlH4bfQ72S/Y+PF+b/qC8k/L8ffGmYMUt9exobs/+x5NwLfi//5ziF2rHr44/cKYjXN3d+KFrt09HW/tuUn5eySlahv15rmxy0yx6Hibu30xjp+q3l1tk18/2P4UuNT9ysbB0dHrb+8rn+M2dTWp8/PTuT6kJlgfB31ofLitG5+EZZl+FvXz+VPjB4q3bVVyNXPh2+7FJApELTdujiJeNdrQb9qvSA3fkhpUCYyUabQwP4mzs/7H6pZHdnV/nEyfSuUoPhweIEwobiDRJCzTyPYdp9VofJhBCvzydujg0Ouw5UQ8IjB+FLbXyvKyETTj96GL7p9scMs+GE7kOHw5+p9kSE+25RSYECYcEHCaF68j9l9OVMeHlsxMJxiNE3G4OEDpKhSpIfOXh5MdHcxrqhbDFRZvHZUuvelhc5cG+IfwU5t8nwYLECYYNBQii8kAlLnV2DYyMJnEQMRRPar+O3bg5Z+EB1FGrkoMOuEBsMD77sneK86hOFP2OEatvT2FjMIjWWj9ra3PLd1S9rv1N2d2dXz5FjQxcHwr9u2hvszPjEDSP8VI/BIne8yN4t1I2v4PE+8LqDhdzq7XlsTbRsTcWVweGp2ZnJ+79k27tXKnCGn/VN//a3Z7Nu7PwOlWKQkKqyvKhQJh/cMzxY0EC4uLykLoGKm1t4srkyISKvHNAS2gEbh309Wf9GT+e3GIh4+QTOjrYD7230MWlDQA2MT9xIbMt7csXyouIYHBtxEQoaCDde9as9R953Yg9U0Pr5lvH3s2SJLsZkC8VhkJCqypYXJXm4Ar+LA19cc/bgK94p2he29TxU1uNINhoFUmjJXb+qJUc1H7BrlqqmbX3C4MQN16HogXBuYX70C6tIoWJC3al9BtTMBR27VDUt3LrpOiRs0AFUAmFm9PrVOWMaVMG+om4fMm1lNlAr69tBOTymMGo/CcUodMJC0aH0EAj/x6mBC7oHqLjC7ic59eihuw/UjD7+4qjLjTYKneqzZOGYQPg7i8tLngkKroLdrkYIgRpX4s4Qo3qmZmfGb1lmlprQ8teRJBC+avLBPW87RbaytlbBxplp2EAthRpcVxTVM3rdRpRJmbh722RRgfDNBsdGVCdQmaL2zg8uAlBL+vupnvBonRq44DqkYW5h/rKDBwXCLXw8cMHIBhXRXeyjyXW8ATVm9QfVThGOL08j2+s8Egg9JVCjlpm+FaDGrP6gqsLTpbszdpfHRrRPBMJ/LjwlH5w/LRPCbivOCWc3AbU2qLVHNX06fNliwqgj/cTd266DQCgTUiN7GpsKfgVCmeslAmpPDU71ZIsJPWAxmp6dMelXIJQJqamO/e0uwvgtg4RAHZrsanCq2kS0WjXGu/axbYEEQpkQtjb9qPJb7I5P3PAGAZrsJGbywT0PWESM6wqEMiH1saex0UUI745BQkCTnfRM3L1tNVosTZHQmLfyUyCUCamDg22mjK4zSAjUsckuE1I94emSCaNIgzaaEggrkwn3Hy95mGBnZbHjXwGZEJkQaVAgTOGRcvgM27evucVF2GyQTc/OuA6ATIhMiDQoEMb9YJ0auDD6xTWXgu1ojS0QPq5moRnqSxNHAZkQmRBpUCCM3uj1qx9aUkiipWf1/vLF5SWtMaDumVD1HbU8TzaRCaVBgbBYpmZn9h8vmQLHFro7u1yEV0w+uKeyBOqbCe0SR1UzoXlkdWfjD4GwdrK+h8GxEfUKvFVlqYwG6ttY7Pr4IwURVTJ6/arpMHU0+eCeTh+BsNbGb90I9YqhQl5XOhTZCGHNzucxiwOoe3EXCiITFqiS8GiFxqFMUpdmudPnBcJ61iuWJRC7X2sVCM3sB+ouFESh4lZ3UyUGomv/RocoOOiMK4Gwvibu3t5/vDR+64ZLQaa787CLIBMCOa+7lUVUyeLyUsiEWoa1id9OhhMIc9TGHRwbOWCzGTbsaWyK6wM/r203uUwI5KQpGVrtNgKhSkLL0CTGqspWb2lOCIT5ks0g/fD8abGw4Dra2mNrFT2p8b+YZULLeIC6G71+VZsyClOzD6P7zJMP7tmavkpN7g839nd0KQTC3BZYM2JhkUV3JH29ZMt49M0DdZcNFdo8nCpVdramr6xsYHBKM1sgFAsRCCtZXa3WrZYavX41vCY12+YUYItWph0BqOrTZanbLs0tzH8oXQuEkcbCA8dLE3dve3YLIrozJ7IStr6vicX3QB5s7ghgQjvVeLpODVzQB7qbd9PAoEAYsfDmfzp8ef/xUniUlQLJ62g74CLsrKD/0E4zQG5qbbEwdzXFagod6yHPHNhoEBon2L7RL64ZvRcI02nyhkc5lAJdH39kwDBhMU4ZzUk/RTZUGNph+k2A/MTCUHcnXGVPz87E0s5Oqccwm0Eaco7W4NZCgzm8g6PXr7pQAmFqQokW6ph//feDpwYuSIY1q9dDnRdK3nDNQ+T4l4P/Vr1/K7otRvMTCF8u/cVCICfF4+DYyP6NQimxKQyhWvzw/OkPzp/+j/u/uNG1F5p/IeeIhRoDOfSuS1BLkw/ubSwvvtxz5Fjp0OHwpw0qK1jPPV6Y//XZs1B/h19qVtR2d8a3gDCf9VCoCcJPubfvkxMnSxFeVSCxtntWKHW0tZdPnPykty+682Zf/i7f3L39+cRN7ez8xMLxiRv95XPl3pPagZ5PgbDoyXBwbCTUNCFRZOHQZXmr+BcKjsXlZ9OPsl/qVojEODyY5z7vzRZYf/lseCnibYFF8RI9X1udW3iy+Gzp1+WlxxZzwh8UmINj4WcklEg9R9+Pq1wKLY2JOz+8vtFlLDXX83SH0bJYGH6K3A0aGm+j16+F59N4qUCoppkPP9ls/o1k2NXRdiD8oh38cnkRWqtTsw9XVldrPPq3HSHMu0fVeC8+Hb6cjaVH1wLLYfBreHG+8/Sj7Hc7tsFOwlU2xyekqZ6jx3qOvJ/PWBWqyPCOT97/ZYt29p6mOErUIuw6lnWDtja3/K18NuqB6Ld6RLOuCpWRQMgbhBdj890I1cz6z/4DB9vai9NvNLcR9jZbrhvDF3mvDGKcMppd4bhaYNks63C1YxySrdm7kw2bZ10ngh9U73ULP6PXr4a2+3qhtL+9u/Nw3Wvq6fUmxMNQdXrxY5StXI10IPrt6vQtuyoQCHlDfdNw97f/bG1uCT+lQ12tzXvXf4k5ImYjfg2/H7LI27jfNoVwYuSqtsmwIXv+O/YfKFo4zCJfNslz/T3amOeZ806Tb9Y7gKPpfcj/8pVQWo7G88RmZXvasoGO8DP6okYIP617W0I+3LdRa1f1n86mzMw9ffJbg4GkKrt0JshsZ8iauvvTnzv+4ipEKptZ2rG/feP39YmL1a6B3irvvdJyjTf1baH/zLmxweHoPvaH508n04WcxcJ9e/ce3GiKRVpxzr14NbIhvpffmvoukQV2I+vMXa+a97Zs1tSZf9qxO/1SKb1Re65VcPB/6OLA0GeX8t6nMDvzwfnTnqJsinIeRqHftl4LD+p/3P/FkHUUjBBGLHvHsmGT0deKj/detIxLh7p+Xz/tfdvQmFVFr5bUL/X+RjG3sxoiXUCY0jL9lydab0bEuneUbHaLvPiQD19/cQr71kBxvNKhk58B3j2Nje5ORMlqfYryiwouNOpC1ZbPDtBsv/fpRw9DvWwwMC5GCGHn/vH4v2L82FU9lTHPQvV58KVZppu58S0q5qdvHuXWAwpE5Oevv83/cJMRwq2tz09ubsmWsNZlgph5yykxQgg7FOlJIUWef5itZHj5f3l9N3YA8iCiFch1kWWwzSWsDS9mh2Xzwio4QeaVrR+yjlHdoAIhsBEIj74f48f+1YI0gGKzHVqqEbHhxYyV1+cnv+2m6Ont+4BACFUIhHGOEOpzBSi4KLZoXnym+7Kytb8xPf7QOy4B7CwNRtrDqooFKLJYKi/zWUAghHwHwjjniza8mFICQDEdjOQE1+fmK4JACLm1p7Ep0vmiAiFAwe2r93nFaisQCCF68c4XVb8CFFzr3hYXARAIYVf6y2cj/eQCIUDBZQcS5Ny0HVBAIIQcV6VdHZEswHjd1CNbjAIUWixTRgGBEHKqfOJkvB/eCCFAkbVW4qTyGnBCEgiEkN+qtNzbF+mHX1lbFQgBiiyWGS4rq7YYBYEQcmno4qV4P7w0CFBwpUOHo/icKiwQCCGPoh4ebDADB6Dwuju7ovicjwVCEAghh6IeHgwm799zEwEKq7W5JZopo06lB4EQcliPRj08aAEhQMH1HDkWxed05gQIhJBHsQ8PTqlfAYotlgWE5ouCQAi5093ZFfXwYMP6fNFf3EeAwmptbollhPDXZ8/cLxAIIV/GBodj/wpm4AAUWSxpsMEWoyAQQt70nzkXyyr8LSrXxeUltxKgsP5WPhvLR7XGAQRCyJHW5pbYVw8GE3d+cCsBCqvnyLFQnUXxUQ0PgkAI+fLVyJU9jU2xf4vJBw6cACiu/niGBwVCEAghTzXomXOlSM7w3bpyNV8UoLC6O7siqsvmnj5xy0AghFzoaGtPYLJog/miAMUWV11mASEIhJALexqb0pgsGnxz97YbClBM5d6+iIYHV9ZWTRkFgRByIaTB2HcWzUw+uBfqVzcUoID2NDZdierYJMODIBBCLowNDkd0XtPWzBcFKKzoprpMP3roroFACHVW7u3rP3Muje+yuLxkf1GAwlZn0XVuGiEEgRDqX31+NXIlma/z+cRN9xSI1J7GpjQWctdFR1t7XJNFGzY6MS0gBIEQ6lx9ppQGV9ZWbScDxOtgW/vTv08PXRwQC3eQpWPcF23a8CAIhFDfNPjz19+m9I1CGrSdDBB7sBn67JJY+LYXLVRnMe6LNnn/F7cPBEKoj54jx0L1mVhrw3xRILFYODY43Nrc4oIkmQYbNrbFdgdBIIQ6KPf2fXf1y8TS4MTd24vLS24ukFLU6T9z7snfp5M5FkgalAZBIIT6C82LlNYNbhq9fs3NBZJU7u2b+f7HkHzCL67GpmzhQ7xR2XxREAihDkIUHIttE7btMDwIJK/U2RXK8CcbywvNI80WPsSbBlfWVo0QgkAINbWnsWnm+x+T7F0O1arhQaAgQhQc+uxSiIXfXf2ymAOG2YaisS98CGnQLmggEELtdGxsZZ7qEpTxWzcNDwJF03PkWMhF//c/HxdqhWH41ml0bk7c+cEzDHX0pz93/MVVoDj6z5xLcppoZmVtdf/xkn5WIAHdnV0/7fQ0oMXlpckH90LMSPWg83Bxhi5eKnV2JfBdws06cLzkgYc6etcloCD2NDZ9f/XLNKrPPzJ+66Y0CNDa3NJ/5lz4CWFjenZm8v4vySxRSykKZhySBHVnhJBCyGYTpX2usU5WICW7GSF8o5AJpx89nJqdiXHYMNRfoSLrL59NbEKsiS2QB0YISVy24D7Uo8l/08GxEbcb4I+EiiCrC7Jhw6lHD0MyzH84XP/YR98PfybZp2k7GcgDI4SkrNzbd2VwOO2Bwc069dTABXccSEbFRwjfKKSRkAmnZh/OPV0PhznZlKujrT18/dKhw+HPtKuwA8dLNkKDujNCSJpam1u+GrmS9orBlxs0hgcBdiDErVBTbFYWWT58vDC/srY2/WgmZJXaxJVQZ4UQ2LE/5MDD4Zci9GM2ODUXBEKoXu3eXz439Nml4nzl0evX1KkAFc6HL+qRUMD+urz0fD0rPgn/Ofd0PpvluPG/vMWM05D6wk/2r4Ts17A+Cnp4/ffCnJPxaiB02gQIhFBx5d6+oYuXshq3IKZnZ8Zv3XDrAapkM8gVYTl6zUw+uDc1O+M6gEAIFZPeTtzbsbK2+unwZXcfgLhY6QACIVRMa3PL2OBwMTtuTRYFIDpWD4JACBWLgkMXL5V7+4r59Scf3DNZFIC4rKytjl6/5jqAQAii4K4sLi+ZLApAdMZv3TQ8CAIhiIK7srK2emrggsN8AYhLiIKj16+6DiAQgii4K5fHRt5qr3MAyIML5raAQAii4C6NfnFt4u5t1wGAuITKy1ETkEPvuATkX0dbe9HOk9iiNjXZBoDorKytXnbUBAiEsDOTD+4dOF76dPjydLF7FsN1sJEMADEK9Zel7yAQwq5M3L39wfnTH54/XcxYOLcwLw0CEGkNPvngnusAAiFUwNTsTAFjYUiD4VvrWwUgOovLSyaLgkAIVYmFB46XirC9ijQIQLyckwQCIVRLdjh72rFQGgQgXoPOSQKBEGoWC8dv3UgsOGXLJqVBACKtxULV7DqAQAg1ioWDYyP7j5dGv7iWRoIK9ag92QCI1NzCvKWDIBBCrYX4NHr9ahYLQ0SM94uEcGtPUQDirY7NcAGBEOocC7OjC6OLheHDnxq4YI4NANIgIBDCrkzcvR1XLMy2kHFYEwDxCtWujWRAIITcxcJTAxdyfnRhtoWMShSAqNOgbk0QCCGPQv2U2xPtV9ZWs0WDJtgAEHUaLML5wCAQQsSyE+0/zNO0zGyaqEWDAEiDgEAINYqFpwYu5OFE+9EvrnV9/JFpogBIg4BACDW1eaJ9Xeqw8K9/eP706PWrbgQA0iAgEEKdY2EtT7QP/1b4F6fyvckNAGwt1JvSIMTuT3/u+IurAJk9jU395XP9Z86GX6r0T0zPzlweGzFHFGBr3Z1dP339reuQ8zRoc2xIgBFC+F3dNnr96v7jpcGxkYofXZh1o6o7AUhAtiOaGg0EQkgzFo7fulHZE+3DX7g/B3vYAMDuZSc5SYMgEELishPtdxkLp2dnuj7+aHBsxBmDACRg9ItrpwYuqNRAIIRixcIdnGif7SOqDxWANIQQaH9sEAihoDZPtN9OLNzcudQ+ogCkIVR/+9VrkKJ3XQJ4q1g4dX6mu7OrfOJkubfv9f+DjfWHN8cnbphLA0AaNnZcuzZ+64ZLAUly7ATsUGtzy9DFS5uxUBQEqCDHTuTE9OxMBbdYAwRCSDMWLi4/EwUBBMKUhErt8tiI/bEheaaMwq5kywVdBwBSMn7rxuj1azo6QSAEAKBAzBEFgRAAgCJGwdHr1+wjCgIhAACiIFAI/+t//5/3XAUAIFeer63+v//+79bmlvcam1yNqkbBC8OXR7+4Zo4oFJZdRgGA/MqOfu05cmyPZFhRE3dvj16XAwGBEACIQbm3r+fo+yEZuhS7ERLg5xM3v7l72w6igEAIAERmT2NTyISS4dsK8W/ywb3xiZtzC/OuBiAQAgDR20yGZpNunQMn7/8S/nQ1AIEQAEhQR1t7z9Fj3Z2HS51droYcCAiEAEAR7Wls6u7sKh06HP4MKbFoX396dmZq9uHk/XvmhQICIQBQdBvhsKu783AIh6lOK81C4PSjGacIAgIhAMCbtTa3hFjYsb895MN9zS3hP+NNgI8X5ueePpkLfxoJBARCAIC3taex6WBb+3oy3NsSImL4zxxOMV1ZWw2Rb3F5aXH52dzT9V8kQEAgBACoYkoMv5QOrW9O09F24L2NiaZVnXGapb6GjRMCQ/ALv0w/Wp/8aQooIBACAOQxMW7KouN2ZDFv0+OFeUfDAwIhAAAAdfOOSwAAACAQAgAAIBACAAAgEAIAACAQAgAAIBACAAAgEAIAACAQAgAAIBACAAAgEAIAACAQAgAAIBACAAAgEAIAACAQAgAAIBACAAAgEAIAACAQAgAAIBACAAAgEAIAACAQAgAAIBACAAAgEAIAACAQAgAAIBACAAAIhAAAAAiEAAAACIQAAAAIhAAAAAiEAAAACIQAAAAIhAAAAAiEAAAACIQAAAAIhAAAAAiEAAAACIQAAAAIhAAAAAiEAAAACIQAAAAIhAAAAAiEAAAACIQAAAAIhAAAAAiEAAAACIQAAAAIhAAAAAiEAAAAAiEAAAACIQAAAAIhAAAAAiEAAAACIQAAAAIhAAAAAiEAAAACIQAAAAIhAAAAAiEAAAACIQAAAAIhAAAAAiEAAAACIQAAAAIhAAAAAiEAAAACIQAAAAIhAAAAAiEAAAACIQAAAAIhAAAAAiEAAAACIQAAAAIhAACAQAgAAIBACAAAgEAIAACAQAgAAIBACAAAgEAIAACAQAgAAIBACAAAgEAIAACAQAgAAIBACAAAQN39fwEGAN5n71pXjpCaAAAAAElFTkSuQmCC;" parent="1" vertex="1">
          <mxGeometry x="1193" y="-739.64" width="117.1" height="53.28" as="geometry" />
        </mxCell>
        <mxCell id="MpN5UlWRLzrrvYsXbTaB-19" value="" style="shape=image;verticalLabelPosition=bottom;labelBackgroundColor=#ffffff;verticalAlign=top;aspect=fixed;imageAspect=0;image=https://upload.wikimedia.org/wikipedia/commons/thumb/0/00/Gunicorn_logo_2010.svg/2560px-Gunicorn_logo_2010.svg.png;" parent="1" vertex="1">
          <mxGeometry x="982" y="-729.44" width="150" height="32.88" as="geometry" />
        </mxCell>
        <mxCell id="MpN5UlWRLzrrvYsXbTaB-21" value="" style="shape=image;verticalLabelPosition=bottom;labelBackgroundColor=#ffffff;verticalAlign=top;aspect=fixed;imageAspect=0;image=https://www.nginx.com/wp-content/uploads/2018/08/NGINX-logo-rgb-large.png;" parent="1" vertex="1">
          <mxGeometry x="643" y="-747" width="208" height="70" as="geometry" />
        </mxCell>
        <mxCell id="MpN5UlWRLzrrvYsXbTaB-23" value="" style="edgeStyle=orthogonalEdgeStyle;html=1;endArrow=block;elbow=vertical;startArrow=block;startFill=1;endFill=1;strokeColor=#545B64;rounded=0;" parent="1" target="MpN5UlWRLzrrvYsXbTaB-18" edge="1">
          <mxGeometry width="100" relative="1" as="geometry">
            <mxPoint x="853" y="-714" as="sourcePoint" />
            <mxPoint x="953" y="-698" as="targetPoint" />
          </mxGeometry>
        </mxCell>
        <mxCell id="MpN5UlWRLzrrvYsXbTaB-24" value="" style="edgeStyle=orthogonalEdgeStyle;html=1;endArrow=block;elbow=vertical;startArrow=block;startFill=1;endFill=1;strokeColor=#545B64;rounded=0;entryX=0;entryY=0.5;entryDx=0;entryDy=0;exitX=1;exitY=0.5;exitDx=0;exitDy=0;" parent="1" source="MpN5UlWRLzrrvYsXbTaB-19" target="MpN5UlWRLzrrvYsXbTaB-16" edge="1">
          <mxGeometry width="100" relative="1" as="geometry">
            <mxPoint x="1153" y="-712" as="sourcePoint" />
            <mxPoint x="953" y="-659" as="targetPoint" />
          </mxGeometry>
        </mxCell>
        <mxCell id="MpN5UlWRLzrrvYsXbTaB-25" value="" style="edgeStyle=orthogonalEdgeStyle;html=1;endArrow=block;elbow=vertical;startArrow=block;startFill=1;endFill=1;strokeColor=#545B64;rounded=0;exitX=1.001;exitY=0.434;exitDx=0;exitDy=0;exitPerimeter=0;" parent="1" edge="1">
          <mxGeometry width="100" relative="1" as="geometry">
            <mxPoint x="1352.739" y="-715.1295" as="sourcePoint" />
            <mxPoint x="1483" y="-715" as="targetPoint" />
            <Array as="points">
              <mxPoint x="1453" y="-715" />
              <mxPoint x="1453" y="-715" />
            </Array>
          </mxGeometry>
        </mxCell>
        <mxCell id="MpN5UlWRLzrrvYsXbTaB-27" value="VPC" style="points=[[0,0],[0.25,0],[0.5,0],[0.75,0],[1,0],[1,0.25],[1,0.5],[1,0.75],[1,1],[0.75,1],[0.5,1],[0.25,1],[0,1],[0,0.75],[0,0.5],[0,0.25]];outlineConnect=0;gradientColor=none;html=1;whiteSpace=wrap;fontSize=12;fontStyle=0;shape=mxgraph.aws4.group;grIcon=mxgraph.aws4.group_vpc;strokeColor=#248814;fillColor=none;verticalAlign=top;align=left;spacingLeft=30;fontColor=#AAB7B8;dashed=0;labelBackgroundColor=#ffffff;" parent="1" vertex="1">
          <mxGeometry x="497" y="-979" width="1120" height="490" as="geometry" />
        </mxCell>
        <mxCell id="MpN5UlWRLzrrvYsXbTaB-30" value="" style="edgeStyle=orthogonalEdgeStyle;rounded=0;orthogonalLoop=1;jettySize=auto;html=1;" parent="1" source="MpN5UlWRLzrrvYsXbTaB-29" target="MpN5UlWRLzrrvYsXbTaB-28" edge="1">
          <mxGeometry relative="1" as="geometry" />
        </mxCell>
        <mxCell id="MpN5UlWRLzrrvYsXbTaB-29" value="USER&lt;br&gt;" style="html=1;verticalLabelPosition=bottom;align=center;labelBackgroundColor=#ffffff;verticalAlign=top;strokeWidth=2;strokeColor=#0080F0;shadow=0;dashed=0;shape=mxgraph.ios7.icons.user;" parent="1" vertex="1">
          <mxGeometry x="1093" y="-1309" width="110.25" height="110" as="geometry" />
        </mxCell>
        <mxCell id="MpN5UlWRLzrrvYsXbTaB-34" value="" style="endArrow=none;html=1;" parent="1" edge="1">
          <mxGeometry width="50" height="50" relative="1" as="geometry">
            <mxPoint x="1018" y="-929" as="sourcePoint" />
            <mxPoint x="1114" y="-929" as="targetPoint" />
          </mxGeometry>
        </mxCell>
        <mxCell id="MpN5UlWRLzrrvYsXbTaB-41" value="" style="edgeStyle=orthogonalEdgeStyle;html=1;endArrow=none;elbow=vertical;startArrow=block;startFill=1;strokeColor=#545B64;rounded=0;fontSize=12;exitX=0.5;exitY=0;exitDx=0;exitDy=0;exitPerimeter=0;" parent="1" source="MpN5UlWRLzrrvYsXbTaB-31" target="MpN5UlWRLzrrvYsXbTaB-28" edge="1">
          <mxGeometry width="100" relative="1" as="geometry">
            <mxPoint x="1133" y="-937" as="sourcePoint" />
            <mxPoint x="1233" y="-937" as="targetPoint" />
          </mxGeometry>
        </mxCell>
        <mxCell id="UEzPUAAOIrF-is8g5C7q-177" value="Amazon S3&lt;br&gt;Bucket&lt;br&gt;" style="outlineConnect=0;fontColor=#232F3E;gradientColor=none;fillColor=#277116;strokeColor=none;dashed=0;verticalLabelPosition=bottom;verticalAlign=top;align=center;html=1;fontSize=12;fontStyle=0;aspect=fixed;pointerEvents=1;shape=mxgraph.aws4.bucket;labelBackgroundColor=#ffffff;" parent="1" vertex="1">
          <mxGeometry x="1714" y="-660" width="75" height="78" as="geometry" />
        </mxCell>
        <mxCell id="MpN5UlWRLzrrvYsXbTaB-28" value="Route 53&lt;br&gt;" style="outlineConnect=0;dashed=0;verticalLabelPosition=bottom;verticalAlign=top;align=center;html=1;shape=mxgraph.aws3.route_53;fillColor=#F58536;gradientColor=none;" parent="1" vertex="1">
          <mxGeometry x="1092.75" y="-1115" width="110.5" height="106" as="geometry" />
        </mxCell>
        <mxCell id="MpN5UlWRLzrrvYsXbTaB-45" style="edgeStyle=orthogonalEdgeStyle;rounded=0;orthogonalLoop=1;jettySize=auto;html=1;fontSize=12;exitX=0.998;exitY=0.364;exitDx=0;exitDy=0;exitPerimeter=0;" parent="1" source="MpN5UlWRLzrrvYsXbTaB-29" target="UEzPUAAOIrF-is8g5C7q-177" edge="1">
          <mxGeometry relative="1" as="geometry">
            <mxPoint x="1253" y="-1246.36" as="sourcePoint" />
            <mxPoint x="1752.4" y="-1142.0743859508761" as="targetPoint" />
            <Array as="points">
              <mxPoint x="1752" y="-1269" />
            </Array>
          </mxGeometry>
        </mxCell>
        <mxCell id="MpN5UlWRLzrrvYsXbTaB-54" value="" style="edgeStyle=orthogonalEdgeStyle;html=1;endArrow=block;elbow=vertical;startArrow=block;startFill=1;endFill=1;strokeColor=#545B64;rounded=0;fontSize=12;" parent="1" edge="1">
          <mxGeometry width="100" relative="1" as="geometry">
            <mxPoint x="746" y="-749" as="sourcePoint" />
            <mxPoint x="1148" y="-876" as="targetPoint" />
            <Array as="points">
              <mxPoint x="746" y="-818" />
              <mxPoint x="1148" y="-818" />
            </Array>
          </mxGeometry>
        </mxCell>
        <mxCell id="MpN5UlWRLzrrvYsXbTaB-33" value="ACM" style="outlineConnect=0;fontColor=#232F3E;gradientColor=none;strokeColor=#ffffff;fillColor=#232F3E;dashed=0;verticalLabelPosition=middle;verticalAlign=bottom;align=center;html=1;whiteSpace=wrap;fontSize=12;fontStyle=0;spacing=2;shape=mxgraph.aws4.productIcon;prIcon=mxgraph.aws4.certificate_manager_3;" parent="1" vertex="1">
          <mxGeometry x="947.5" y="-969" width="70" height="100" as="geometry" />
        </mxCell>
        <mxCell id="MpN5UlWRLzrrvYsXbTaB-31" value="ALB&lt;br&gt;" style="outlineConnect=0;dashed=0;verticalLabelPosition=bottom;verticalAlign=top;align=center;html=1;shape=mxgraph.aws3.application_load_balancer;fillColor=#F58534;gradientColor=none;fontStyle=0;spacingBottom=2;" parent="1" vertex="1">
          <mxGeometry x="1113.63" y="-969" width="69" height="72" as="geometry" />
        </mxCell>
        <mxCell id="MpN5UlWRLzrrvYsXbTaB-58" value="" style="shape=image;verticalLabelPosition=bottom;labelBackgroundColor=#ffffff;verticalAlign=top;aspect=fixed;imageAspect=0;image=https://www.docker.com/sites/default/files/d8/2019-07/horizontal-logo-monochromatic-white.png;" parent="1" vertex="1">
          <mxGeometry x="492" y="-1286" width="155.22" height="40" as="geometry" />
        </mxCell>
        <mxCell id="MpN5UlWRLzrrvYsXbTaB-60" value="" style="edgeStyle=orthogonalEdgeStyle;html=1;endArrow=block;elbow=vertical;startArrow=none;endFill=1;strokeColor=#545B64;rounded=0;fontSize=12;" parent="1" edge="1">
          <mxGeometry width="100" relative="1" as="geometry">
            <mxPoint x="563" y="-1229" as="sourcePoint" />
            <mxPoint x="605" y="-711" as="targetPoint" />
            <Array as="points">
              <mxPoint x="563" y="-1139" />
              <mxPoint x="563" y="-711" />
            </Array>
          </mxGeometry>
        </mxCell>
        <mxCell id="MpN5UlWRLzrrvYsXbTaB-62" value="" style="shape=image;verticalLabelPosition=bottom;labelBackgroundColor=#ffffff;verticalAlign=top;aspect=fixed;imageAspect=0;image=data:image/png,iVBORw0KGgoAAAANSUhEUgAAATYAAACiCAMAAAD84hF6AAAAkFBMVEX///8XFRYiIiIAAAATExMYGBgbGxsQEBAfHx9nZ2f8/Px+fn7X19f5+fkVExRFRUXn5+eHh4fKyspLS0ttbW0qKip0dHSmpqZdXV0JCQn09PTs7OyPj4/g4OCdnZ1vb2+vr6++vr43NzctLS1CQkLS0tJUVFRKSkq4uLiMjIxiYWLDw8OXl5eCgoIsLCw7Ozst3jaYAAAK8klEQVR4nO2ca2OqOBCGKQMEI6C1VQwIXuqt1R7//79bAokmXFS0u/as83xpRYjkZZLMTEIMA0EQBEEQBEEQBEEQBEEQBEEQBEEQBEEQBEEQBEEQBEEQBEEaoY++gb8FP/ZWg8Fgtxt4/ejRN/N30N9NxgeTgcD+2Iy2nv/ou/rFUIOuJr0AgJEgCF442V/CFfyYziNsrFW4JHF4yCQTgukQAKfrPfomfyNJF4DUSSbIrPBt/uib/F1Qoz8COKNZ0WAZLAfZydhYBf4e4LxmAgbj/qNv9tewOlyytBMAIcXBIYOmwK4VjbdVWKPBZePn1/WmJgzOGTy9vXmH63o1FQLho2/7wQzM9qrxhrp/anvbOW26NVW3zyeWbXCjaly3ydPam2feqhrXLX307T+I6IbRQNVt/pT2RjtgSQ14iuiyGxLwZAiRn5iTPLoK/z3U2J9sDcJ5ODKBWbVqHc0Lxul2tzjqBm/R88Wn3sm8iMkP+LvxmXAhgGEac5FUtZ9vWPB7J4ngUxz0xlzLIAAVnk0KwJmJc1YnuQNYXfqZXFY/6idx9L/IEIegGJLMo1Fj/icTatiZzOYrz/NWg23a7XHtJr40LKok5djbRWtLws6HfACH9/Sizr8aGp+Gg0w2pW/3w11l0mUVqondg9KSYXbuRyjd9oDZrilwbQbWJDpKfVbz5L3zntGZqrcz+8qPdcJLj2vWKa7eXzivJd+q7wHx8Xjex5fuiRpabnKsXMr+nGt6yRocs4QLO1HqbLxcz5qrvwI7B9R8yzvJj7GvS/UbsfxEa3PpxFb0VXcjgFaTel/quNEc1FNja9tl0bhshVJRB2zHgXHjT3tQnE9U2UZWftDuXLrJrjjxrU3NLvKqGlugWNsVjFXZyEejvWyZW1XNdN4KY54UqsBr0+X1stkPlI36um8LLeakqLHQvBRompZZOXWqmaTobaKFK1QpWnnUjzn9+PgUfp9sxkyPqmDb4tqIaZKzdf1p/vrUQl3HIhmWkykpurYYxHei65ox082wT6X9wkb6pru18NXCbZ2DFktow7BCCEfVmLsevU4mr91OzwbRj8amsDbxOQQ3l+1Uzd9nbXEp/oQ2w3RC9BCsPhMSHWQTtc20L4ZbGiUz+VNTUnw7Lj6GrOj5LlnbI2ULS230vdXVW1101qs7aS6Nzd7UW2PykVXMtVzx7bWyPa6RUt2FeAlIq4E0c5401evHYWEWprtoKjzpWEA6UlMp2+9tpJTqyzzazqdkEYYuW3UspZHoukxonuSicXJS5PfLpgbjGcRtvYKtq+kGk+oZos6867qcW+InlGSjVzTSs+UK2Xijp9483KfbFb1zgaPufjQ7nI14WgF1nZtQwWx2bWa9N07vm3+Id+/SXVlnBzffxhXWFnfGBUVDp5H6+ShbvzskwAhjbDjx75LtW5dt0L6EoWquAavezWtx12Zzt/nNHI69NIz0kMX70lvJIi7H4jYnZbPUIlRr84idlyAr0HeVz0K27A4sV/QXLvvo32Nva3VECIKWA0J+95dis04hg7tsjPSFsE5mqr1y6JqPp7Kdu53pu2Qq3JpCNpEmYFK2YfEl0WTTyrWjO2Q7pbXzJnZDSalur5UkGu0VVbKn4nNfJe9LVdnKaRJNNtNWEIZzo2xHL/EmTLWJwcVBqYatLltlKKUi4rRE2jhmarr4Dz90vWx11W8lm3sKjm/pkQSx5n/A6IYi5rpss/L3vvA/RNxuxESpszvkh7RG6p5qdgyxfkg2h2WdG5HdgNXOs1fp/weyOW1k6ywWiw+p2yH7sOCV+xnZnLd0lSS7sSUfys0zGn1thS5Mbyhie0G2yG0jmx9Fflp4LO4m4vC6/YhstrAuf2zrJ7cn0WRjt/SSsx+VjdMYJdw3JFhdUdpA3AGr3Ou16NZGDjeY7V6XrRKd+X/EkPBaOEp94p565pay6Q7IjbJRmZEhNSHNdcS25qwGN7wd1L1gbXSp+Ff8Jx3LPk4stJPN1TxmNUpoJZshWqn13b62ogjz5oy4ZKnnxXeVE76Eu7sQ8UwUx3G0J7dYW2NM2qqRyiutW0bAAs3dPT/VWU95KqI6Z/wtRi6mJttkt9/S2ppi0nayyQO3jIAFY91W2us/KGWOqivHZSjP1G7vobKNygdao4fyxGk9JnRLslXDs2N/rmZHHirb1L5XNt19sNsu76MGaK28LnHkD0WdYHsq/Cdku7FvOw4J5PbVDXqaMiC1kwFnKE9F1I3p0kt3ld7tgbIZ/sap9hrtoFZp7qnNNGllorQuKc67P1PoZhW1olfJpjTqWtmmmmyFTHIgr40SpGyJiJJZddS/EloaE17ISyvXbaQbW/0KkmM0Y7owniU+9WNPdEznZDPZ0Uu7WjYi0tNSmVrZJiJKsO5YOFtqZS+wbpEuDkuTrGRZe9rgFFLa8v1xs1k2OUFoHwZx5uQ1zSWossVDGWql2SWrTznro4Xy1tcsiaP+XvYZizvyu4le8+AF3q8ubFteGl0/vUyNV2bWUyubJ6NWB5gFB+MK2fylzNMxYjMgMoeiyeZmz4zYIEuX0d5tbMprdPlropfLo4afllWzGhYzGNG4Qbda2SI1V+kur7E2o3tKEKirdKrZXSVNedeL69IFCQgT/TsMt1c8Bq/6NmDT0hn+6mDtSq2sEvzbkmxGquSJrpRtVf9cziTFye1ZSuO0UCt42YyXrPifwHp+fmSgXpdUX15oXKiVWdCnVXPzDqzrZIvWp3Pzg5dly/x2/XkU7VSRbUi0B2ebN0w3KQKIZYFsTWm0mwotAJafqybloiQcs5o3PshHc4xBjVWHEG2Zm0NgM8t/Q0z4WccBJVmDTC05/OAKihnB0iLU/CApFqH6I2WRq8OG+w6f8ism/HjxpLP9gOPvu2zh3flCQLEINQhCauxXO9FQ+UsuH+PPbXnN82o76eRbXVREu7wSwpusraxTJpZFCANr8zoQMmvTyzlR2mPA+Gn50lyvOGHzpt7NRFwlp8S3bwT40rlsRFinfWN26GXw/itdZqctQyNO13mhJKva5/0b6BRhZQDvsRF35yCnF/juCzAqPZI5NGiWGdvw4swjjVezdPL6+rkPB3zFllyn7xeoy8b9ZJvu9+Eu4UfFCZHmG9GodBm/ZPL6mc7zoouv+fIJcRb/rz9PJ5Psx39i1yGxwD6AXmyEVJ33zJqdrgTVV/qqBDB7qvdgqJwhDjJX15hvFY+kogQ1oqbX2GDzv3i1pQW+zNDC3hh89YnUrS57ZnTqzS24Y7b2b0W+qpbrlMw/sv6NA3WLG2b1ssHnUzXRAjn9xFfu7om/H+bvpb3XGdCgVjboPePebvSrEINY2WgYG7Ott5t7/Vnd0JjUyUZennKLLRovCjWA+040/TZC6O8WyZWyBWri9qkQWwwc3YgoqXlRjVMj2/NuMZD1WYHQ7ft8L1WVjW8E8py2xtm9CN0WYZIrR6P4GmsL4PWp99UaiK1Aspht2ZlOO2u3bkKlLFvwlK6Hirc45d6y0JPVzkOVZMOtoQyjP9ZCpytkA3tnPFtQVYXu1X0sjrs0qKiyBfCG294Z3OEYKJssXpINYO8/eb92RNnSs/almONrLwy+nnCHnmaOG8iek43BcoeGppOM8g1mGmSzrQBgg9sV1xCnPAlSlwGJ+F40o797x5h/E29W33X52zm6HI1gx4UgCIIgCIIgCIIgCIIgCIIgCIIgCIIgCIIgCIIgCIIgCIIgCIIgv51/ANs0zPwJ6+soAAAAAElFTkSuQmCC;" parent="1" vertex="1">
          <mxGeometry x="483.5" y="-1459" width="172.22" height="90" as="geometry" />
        </mxCell>
        <mxCell id="MpN5UlWRLzrrvYsXbTaB-64" value="" style="edgeStyle=orthogonalEdgeStyle;html=1;endArrow=block;elbow=vertical;startArrow=none;endFill=1;strokeColor=#545B64;rounded=0;fontSize=12;" parent="1" edge="1">
          <mxGeometry width="100" relative="1" as="geometry">
            <mxPoint x="563" y="-1359" as="sourcePoint" />
            <mxPoint x="563" y="-1299" as="targetPoint" />
            <Array as="points">
              <mxPoint x="563" y="-1329" />
              <mxPoint x="563" y="-1329" />
            </Array>
          </mxGeometry>
        </mxCell>
        <mxCell id="MpN5UlWRLzrrvYsXbTaB-65" value="Developer" style="verticalLabelPosition=bottom;html=1;verticalAlign=top;align=center;strokeColor=none;fillColor=#00BEF2;shape=mxgraph.azure.computer;pointerEvents=1;labelBackgroundColor=#ffffff;fontSize=12;" parent="1" vertex="1">
          <mxGeometry x="783" y="-1454" width="90" height="80" as="geometry" />
        </mxCell>
        <mxCell id="MpN5UlWRLzrrvYsXbTaB-66" value="" style="edgeStyle=orthogonalEdgeStyle;html=1;endArrow=block;elbow=vertical;startArrow=none;endFill=1;strokeColor=#545B64;rounded=0;fontSize=12;entryX=1;entryY=0.5;entryDx=0;entryDy=0;" parent="1" target="MpN5UlWRLzrrvYsXbTaB-62" edge="1">
          <mxGeometry width="100" relative="1" as="geometry">
            <mxPoint x="773" y="-1414" as="sourcePoint" />
            <mxPoint x="683" y="-1419" as="targetPoint" />
            <Array as="points">
              <mxPoint x="773" y="-1414" />
            </Array>
          </mxGeometry>
        </mxCell>
        <mxCell id="w_D8O85Lzg-hCMJBXxS9-1" value="&lt;font style=&quot;font-size: 14px&quot;&gt;&lt;span&gt;HTTPS&lt;/span&gt;&lt;/font&gt;" style="text;html=1;align=center;verticalAlign=middle;resizable=0;points=[];autosize=1;strokeColor=none;fillColor=none;fontStyle=0" vertex="1" parent="1">
          <mxGeometry x="1182.63" y="-960" width="60" height="20" as="geometry" />
        </mxCell>
      </root>
    </mxGraphModel>
  </diagram>
</mxfile>
